<?xml version="1.0" encoding="UTF-8"?>
<svg width="231px" height="50px" viewBox="0 0 231 50" version="1.1" xmlns="http://www.w3.org/2000/svg" xmlns:xlink="http://www.w3.org/1999/xlink">
    <!-- Generator: Sketch 41.2 (35397) - http://www.bohemiancoding.com/sketch -->
    <title>browserstack-logo</title>
    <desc>Created with Sketch.</desc>
    <defs>
        <radialGradient cx="50.0907407%" cy="49.9240741%" fx="50.0907407%" fy="49.9240741%" r="50.1188272%" id="radialGradient-1">
            <stop stop-color="#797979" offset="0%"></stop>
            <stop stop-color="#4C4C4C" offset="100%"></stop>
        </radialGradient>
    </defs>
    <g id="Page-1" stroke="none" stroke-width="1" fill="none" fill-rule="evenodd">
        <g id="browserstack-logo">
            <g id="Page-1">
                <g id="Logo-01">
                    <g id="Group">
                        <g id="Oval">
                            <ellipse fill="#F5BB60" cx="24.7849462" cy="24.7849462" rx="24.7849462" ry="24.7849462"></ellipse>
                            <ellipse fill="#E86F32" cx="22.311828" cy="22.311828" rx="22.311828" ry="22.311828"></ellipse>
                            <ellipse fill="#E53D42" cx="25.2688172" cy="19.3548387" rx="19.3548387" ry="19.3548387"></ellipse>
                            <ellipse fill="#BFD141" cx="26.827957" cy="20.8602151" rx="17.7956989" ry="17.7956989"></ellipse>
                            <ellipse fill="#6DB64C" cx="25.5376344" cy="22.2043011" rx="16.5053763" ry="16.5053763"></ellipse>
                            <ellipse fill="#AFDBE7" cx="22.9032258" cy="19.5698925" rx="13.8709677" ry="13.8709677"></ellipse>
                            <ellipse fill="#57BADF" cx="25.1612903" cy="17.311828" rx="11.6129032" ry="11.6129032"></ellipse>
                            <ellipse fill="#02B2D6" cx="26.6129032" cy="18.7096774" rx="10.2150538" ry="10.2150538"></ellipse>
                            <ellipse fill="url(#radialGradient-1)" cx="25.1075269" cy="20.2150538" rx="8.70967742" ry="8.70967742"></ellipse>
                            <ellipse fill="#231F20" cx="25.1075269" cy="20.2150538" rx="8.70967742" ry="8.70967742"></ellipse>
                            <ellipse fill="#FFFFFF" transform="translate(28.596882, 17.040731) rotate(24.166094) translate(-28.596882, -17.040731) " cx="28.5968817" cy="17.0407312" rx="1.72050075" ry="2.68828242"></ellipse>
                        </g>
                        <path d="M57.5806452,15.3225806 C57.5806452,15.1612903 57.688172,15.0537634 57.9032258,15.0537634 L65.6989247,15.0537634 C70.1612903,15.0537634 72.2580645,17.0967742 72.2580645,20.2150538 C72.2580645,22.4193548 71.1290323,23.655914 69.8387097,24.3010753 L69.8387097,24.3548387 C71.1290323,24.7849462 72.6344086,26.344086 72.6344086,28.7096774 C72.6344086,32.5806452 70,34.4086022 65.4301075,34.4086022 L57.9032258,34.4086022 C57.7419355,34.4086022 57.5806452,34.3010753 57.5806452,34.1397849 L57.5806452,15.3225806 L57.5806452,15.3225806 Z M65.5913978,23.1182796 C67.4193548,23.1182796 68.6021505,22.0967742 68.6021505,20.5913978 C68.6021505,19.0322581 67.4731183,18.0107527 65.5913978,18.0107527 L61.3978495,18.0107527 C61.2903226,18.0107527 61.2365591,18.0645161 61.2365591,18.172043 L61.2365591,22.9569892 C61.2365591,23.0645161 61.2903226,23.1182796 61.3978495,23.1182796 L65.5913978,23.1182796 L65.5913978,23.1182796 Z M61.3978495,31.4516129 L65.8064516,31.4516129 C67.8494624,31.4516129 68.9784946,30.3763441 68.9784946,28.7634409 C68.9784946,27.1505376 67.8494624,26.0752688 65.8064516,26.0752688 L61.3978495,26.0752688 C61.2903226,26.0752688 61.2365591,26.1290323 61.2365591,26.2365591 L61.2365591,31.2903226 C61.2365591,31.3978495 61.2903226,31.4516129 61.3978495,31.4516129 Z" id="Shape" fill="#382F27"></path>
                        <path d="M75.1612903,34.4623656 C75,34.4623656 74.8387097,34.3548387 74.8387097,34.1935484 L74.8387097,20.9677419 C74.8387097,20.8064516 74.9462366,20.6989247 75.1612903,20.6989247 L78.0107527,20.6989247 C78.172043,20.6989247 78.3333333,20.8064516 78.3333333,20.9677419 L78.3333333,22.1505376 L78.3870968,22.1505376 C79.0860215,21.0752688 80.3763441,20.3763441 82.2580645,20.3763441 C83.4408602,20.3763441 84.6236559,20.8064516 85.3763441,21.5053763 C85.5376344,21.6666667 85.5376344,21.7741935 85.4301075,21.8817204 L83.8172043,23.8172043 C83.7096774,23.9784946 83.5483871,23.9784946 83.3870968,23.8709677 C82.688172,23.4946237 81.9892473,23.2258065 81.1827957,23.2258065 C79.2473118,23.2258065 78.3870968,24.516129 78.3870968,26.7204301 L78.3870968,34.1935484 C78.3870968,34.3548387 78.2795699,34.4623656 78.0645161,34.4623656 L75.1612903,34.4623656 L75.1612903,34.4623656 Z" id="Shape" fill="#382F27"></path>
                        <path d="M85.9677419,30.9677419 C85.6451613,30 85.483871,29.0860215 85.483871,27.5806452 C85.483871,26.0752688 85.6451613,25.1612903 85.9677419,24.1935484 C86.827957,21.7741935 89.0860215,20.3763441 92.0967742,20.3763441 C95.1075269,20.3763441 97.3655914,21.7741935 98.2258065,24.1935484 C98.5483871,25.1612903 98.7096774,26.0752688 98.7096774,27.5806452 C98.7096774,29.0860215 98.5483871,30 98.2258065,30.9677419 C97.3655914,33.3870968 95.1075269,34.7849462 92.0967742,34.7849462 C89.0860215,34.7311828 86.827957,33.3333333 85.9677419,30.9677419 Z M94.8924731,30.1075269 C95.1612903,29.4086022 95.2150538,28.7634409 95.2150538,27.5806452 C95.2150538,26.3978495 95.1612903,25.8064516 94.8924731,25.0537634 C94.4623656,23.9247312 93.4946237,23.2795699 92.0967742,23.2795699 C90.6989247,23.2795699 89.7311828,23.9247312 89.3010753,25.0537634 C89.0322581,25.8064516 88.9784946,26.3978495 88.9784946,27.5806452 C88.9784946,28.7634409 89.0322581,29.4086022 89.3010753,30.1075269 C89.7311828,31.2365591 90.6989247,31.8817204 92.0967742,31.8817204 C93.4946237,31.8817204 94.4623656,31.2365591 94.8924731,30.1075269 Z" id="Shape" fill="#382F27"></path>
                        <path d="M113.709677,34.4623656 C113.548387,34.4623656 113.387097,34.3548387 113.333333,34.1935484 L110.483871,25.3763441 L110.430108,25.3763441 L107.526882,34.1935484 C107.473118,34.3548387 107.365591,34.4623656 107.150538,34.4623656 L104.623656,34.4623656 C104.462366,34.4623656 104.301075,34.3548387 104.247312,34.1935484 L99.516129,20.9677419 C99.4623656,20.8064516 99.5698925,20.6989247 99.7311828,20.6989247 L102.688172,20.6989247 C102.903226,20.6989247 103.010753,20.8064516 103.064516,20.9677419 L105.913978,30.0537634 L105.967742,30.0537634 L108.817204,20.9677419 C108.870968,20.8064516 109.032258,20.6989247 109.193548,20.6989247 L111.397849,20.6989247 C111.55914,20.6989247 111.72043,20.8064516 111.774194,20.9677419 L114.784946,30.0537634 L114.83871,30.0537634 L117.580645,20.9677419 C117.634409,20.7526882 117.741935,20.6989247 117.956989,20.6989247 L120.913978,20.6989247 C121.075269,20.6989247 121.182796,20.8064516 121.129032,20.9677419 L116.451613,34.1397849 C116.397849,34.3010753 116.290323,34.4086022 116.075269,34.4086022 L113.709677,34.4086022 L113.709677,34.4623656 Z" id="Shape" fill="#382F27"></path>
                        <path d="M121.88172,32.5806452 C121.774194,32.4731183 121.774194,32.311828 121.88172,32.2043011 L123.655914,30.483871 C123.763441,30.3763441 123.978495,30.3763441 124.086022,30.483871 C125.16129,31.3978495 126.88172,32.0430108 128.44086,32.0430108 C130.268817,32.0430108 131.182796,31.344086 131.182796,30.4301075 C131.182796,29.6236559 130.645161,29.0860215 128.709677,28.9247312 L127.096774,28.7634409 C124.086022,28.4946237 122.526882,27.0430108 122.526882,24.7311828 C122.526882,22.0967742 124.569892,20.3763441 128.27957,20.3763441 C130.591398,20.3763441 132.526882,21.0752688 133.870968,22.0430108 C134.032258,22.1505376 134.032258,22.311828 133.924731,22.4193548 L132.419355,24.0860215 C132.311828,24.2473118 132.150538,24.2473118 131.989247,24.1397849 C131.075269,23.5483871 129.569892,23.0107527 128.11828,23.0107527 C126.612903,23.0107527 125.860215,23.6021505 125.860215,24.4623656 C125.860215,25.2688172 126.397849,25.7526882 128.27957,25.9139785 L129.892473,26.0752688 C133.010753,26.344086 134.516129,27.8494624 134.516129,30.1075269 C134.516129,32.8494624 132.365591,34.7849462 128.27957,34.7849462 C125.215054,34.7311828 123.11828,33.655914 121.88172,32.5806452 Z" id="Shape" fill="#382F27"></path>
                        <path d="M136.88172,30.9139785 C136.55914,30.0537634 136.344086,28.9784946 136.344086,27.5268817 C136.344086,26.0752688 136.505376,25 136.827957,24.1397849 C137.688172,21.7204301 139.946237,20.3225806 142.903226,20.3225806 C145.967742,20.3225806 148.172043,21.7741935 149.032258,24.1397849 C149.354839,25.1075269 149.516129,26.0752688 149.516129,28.2795699 C149.516129,28.4408602 149.408602,28.5483871 149.193548,28.5483871 L140,28.5483871 C139.892473,28.5483871 139.83871,28.6021505 139.83871,28.7096774 C139.83871,29.0860215 139.946237,29.4623656 140.053763,29.7849462 C140.537634,31.1290323 141.72043,31.8817204 143.387097,31.8817204 C145.053763,31.8817204 146.129032,31.2903226 146.88172,30.5913978 C147.043011,30.4301075 147.204301,30.4301075 147.365591,30.5376344 L149.193548,32.0430108 C149.354839,32.1505376 149.354839,32.311828 149.247312,32.4193548 C147.956989,33.7634409 145.860215,34.7849462 143.11828,34.7849462 C139.946237,34.7311828 137.741935,33.3333333 136.88172,30.9139785 Z M145.860215,24.8387097 C145.483871,23.7096774 144.354839,23.0645161 142.956989,23.0645161 C141.55914,23.0645161 140.430108,23.7096774 140,24.8387097 C139.892473,25.1612903 139.83871,25.5376344 139.83871,26.0215054 C139.83871,26.1290323 139.892473,26.1827957 140,26.1827957 L145.860215,26.1827957 C145.967742,26.1827957 146.021505,26.1290323 146.021505,26.0215054 C146.075269,25.5376344 146.021505,25.1612903 145.860215,24.8387097 Z" id="Shape" fill="#382F27"></path>
                        <path d="M152.096774,34.4623656 C151.935484,34.4623656 151.774194,34.3548387 151.774194,34.1935484 L151.774194,20.9677419 C151.774194,20.8064516 151.88172,20.6989247 152.096774,20.6989247 L154.946237,20.6989247 C155.107527,20.6989247 155.268817,20.8064516 155.268817,20.9677419 L155.268817,22.1505376 L155.322581,22.1505376 C156.021505,21.0752688 157.311828,20.3763441 159.193548,20.3763441 C160.376344,20.3763441 161.55914,20.8064516 162.311828,21.5053763 C162.473118,21.6666667 162.473118,21.7741935 162.365591,21.8817204 L160.752688,23.8172043 C160.645161,23.9784946 160.483871,23.9784946 160.322581,23.8709677 C159.623656,23.4946237 158.924731,23.2258065 158.11828,23.2258065 C156.182796,23.2258065 155.322581,24.516129 155.322581,26.7204301 L155.322581,34.1935484 C155.322581,34.3548387 155.215054,34.4623656 155,34.4623656 L152.096774,34.4623656 L152.096774,34.4623656 Z" id="Shape" fill="#382F27"></path>
                        <path d="M162.849462,32.2043011 C162.741935,32.0967742 162.688172,31.9354839 162.795699,31.7741935 L164.731183,29.7311828 C164.83871,29.5698925 165.053763,29.5698925 165.16129,29.6774194 C166.505376,30.6989247 168.548387,31.7204301 170.860215,31.7204301 C173.387097,31.7204301 174.83871,30.5376344 174.83871,28.9247312 C174.83871,27.5268817 173.924731,26.6129032 171.021505,26.2365591 L169.892473,26.0752688 C165.860215,25.5376344 163.548387,23.7634409 163.548387,20.5376344 C163.548387,17.0430108 166.344086,14.6774194 170.645161,14.6774194 C173.27957,14.6774194 175.752688,15.4301075 177.419355,16.6129032 C177.580645,16.7204301 177.580645,16.827957 177.473118,16.9892473 L175.967742,19.0860215 C175.860215,19.2473118 175.698925,19.2473118 175.537634,19.1935484 C173.817204,18.172043 172.258065,17.688172 170.483871,17.688172 C168.333333,17.688172 167.204301,18.7634409 167.204301,20.2688172 C167.204301,21.6129032 168.225806,22.5268817 171.075269,22.9032258 L172.204301,23.0645161 C176.236559,23.6021505 178.494624,25.3225806 178.494624,28.7096774 C178.494624,32.1505376 175.806452,34.7311828 170.591398,34.7311828 C167.473118,34.7311828 164.516129,33.6021505 162.849462,32.2043011 Z" id="Shape" fill="#382F27"></path>
                        <path d="M184.892473,34.6774194 C181.88172,34.6774194 180.752688,33.3333333 180.752688,30.6451613 L180.752688,23.3870968 C180.752688,23.2795699 180.698925,23.2258065 180.591398,23.2258065 L179.569892,23.2258065 C179.408602,23.2258065 179.247312,23.1182796 179.247312,22.9569892 L179.247312,21.0215054 C179.247312,20.8602151 179.354839,20.7526882 179.569892,20.7526882 L180.537634,20.7526882 C180.645161,20.7526882 180.698925,20.6989247 180.698925,20.5913978 L180.698925,16.827957 C180.698925,16.6666667 180.806452,16.5591398 181.021505,16.5591398 L183.870968,16.5591398 C184.032258,16.5591398 184.193548,16.6666667 184.193548,16.827957 L184.193548,20.5913978 C184.193548,20.6989247 184.247312,20.7526882 184.354839,20.7526882 L186.344086,20.7526882 C186.505376,20.7526882 186.666667,20.8602151 186.666667,21.0215054 L186.666667,22.9569892 C186.666667,23.1182796 186.55914,23.2258065 186.344086,23.2258065 L184.408602,23.2258065 C184.301075,23.2258065 184.247312,23.2795699 184.247312,23.3870968 L184.247312,30.5376344 C184.247312,31.5053763 184.677419,31.827957 185.645161,31.827957 L186.397849,31.827957 C186.55914,31.827957 186.72043,31.9354839 186.72043,32.0967742 L186.72043,34.4086022 C186.72043,34.5698925 186.612903,34.6774194 186.397849,34.6774194 L184.892473,34.6774194 Z" id="Shape" fill="#382F27"></path>
                        <path d="M197.956989,34.4623656 C197.795699,34.4623656 197.634409,34.3548387 197.634409,34.1935484 L197.634409,33.172043 L197.580645,33.172043 C196.88172,34.1397849 195.483871,34.7849462 193.387097,34.7849462 C190.645161,34.7849462 188.387097,33.4946237 188.387097,30.5913978 C188.387097,27.5806452 190.645161,26.2365591 194.354839,26.2365591 L197.365591,26.2365591 C197.473118,26.2365591 197.526882,26.1827957 197.526882,26.0752688 L197.526882,25.4301075 C197.526882,23.8709677 196.72043,23.172043 194.247312,23.172043 C192.580645,23.172043 191.55914,23.6021505 190.860215,24.1397849 C190.698925,24.2473118 190.537634,24.2473118 190.430108,24.0860215 L189.301075,22.2043011 C189.193548,22.0430108 189.247312,21.9354839 189.354839,21.827957 C190.537634,21.0215054 192.204301,20.483871 194.623656,20.483871 C199.139785,20.483871 200.806452,21.9354839 200.806452,25.2688172 L200.806452,34.2473118 C200.806452,34.4086022 200.698925,34.516129 200.483871,34.516129 L197.956989,34.516129 L197.956989,34.4623656 Z M197.634409,29.8387097 L197.634409,28.7634409 C197.634409,28.655914 197.580645,28.6021505 197.473118,28.6021505 L195,28.6021505 C192.795699,28.6021505 191.774194,29.1935484 191.774194,30.483871 C191.774194,31.6129032 192.688172,32.2043011 194.354839,32.2043011 C196.451613,32.1505376 197.634409,31.3978495 197.634409,29.8387097 Z" id="Shape" fill="#382F27"></path>
                        <path d="M203.602151,30.9677419 C203.27957,30.1075269 203.11828,29.0322581 203.11828,27.5806452 C203.11828,26.1290323 203.27957,25.0537634 203.602151,24.1935484 C204.462366,21.7204301 206.774194,20.3763441 209.731183,20.3763441 C211.935484,20.3763441 213.709677,21.1827957 214.892473,22.5268817 C215,22.6344086 215,22.7956989 214.83871,22.9032258 L212.903226,24.4623656 C212.741935,24.5698925 212.580645,24.5698925 212.473118,24.4086022 C211.72043,23.655914 210.967742,23.2258065 209.731183,23.2258065 C208.387097,23.2258065 207.365591,23.8172043 206.935484,25 C206.666667,25.6989247 206.612903,26.5053763 206.612903,27.5268817 C206.612903,28.5483871 206.666667,29.4086022 206.935484,30.1075269 C207.365591,31.2903226 208.387097,31.8817204 209.731183,31.8817204 C210.967742,31.8817204 211.72043,31.4516129 212.473118,30.6989247 C212.580645,30.5376344 212.741935,30.5376344 212.903226,30.6451613 L214.83871,32.2043011 C215,32.311828 214.946237,32.4731183 214.892473,32.5806452 C213.709677,33.8709677 211.935484,34.6774194 209.731183,34.6774194 C206.72043,34.7311828 204.462366,33.3870968 203.602151,30.9677419 Z" id="Shape" fill="#382F27"></path>
                        <path d="M226.935484,34.4623656 C226.72043,34.4623656 226.55914,34.3548387 226.451613,34.1935484 L222.688172,28.4408602 L220.698925,30.5913978 L220.698925,34.1935484 C220.698925,34.3548387 220.591398,34.4623656 220.376344,34.4623656 L217.526882,34.4623656 C217.365591,34.4623656 217.204301,34.3548387 217.204301,34.1935484 L217.204301,15.3225806 C217.204301,15.1612903 217.311828,15.0537634 217.526882,15.0537634 L220.376344,15.0537634 C220.537634,15.0537634 220.698925,15.1612903 220.698925,15.3225806 L220.698925,26.5053763 L225.806452,20.9677419 C225.967742,20.7526882 226.129032,20.6989247 226.397849,20.6989247 L229.569892,20.6989247 C229.731183,20.6989247 229.83871,20.8602151 229.677419,20.9677419 L224.946237,25.9677419 L230.376344,34.1397849 C230.483871,34.2473118 230.430108,34.4086022 230.215054,34.4086022 L226.935484,34.4086022 L226.935484,34.4623656 Z" id="Shape" fill="#382F27"></path>
                    </g>
                </g>
            </g>
        </g>
    </g>
</svg>